<?xml version="1.0" encoding="UTF-8"?>
<svg xmlns="http://www.w3.org/2000/svg" viewBox="0 0 2144 1984">
  <defs>
    <style>
      .cls-1 {
        fill: #f9f1b3;
      }

      .cls-2 {
        fill: #f0c193;
      }

      .cls-3 {
        fill: #2f1a21;
      }

      .cls-4 {
        fill: #c78761;
      }

      .cls-5 {
        fill: #f4a139;
      }

      .cls-6 {
        fill: #a1b5b4;
      }

      .cls-7 {
        fill: #e58378;
      }

      .cls-8 {
        fill: #2d181d;
      }

      .cls-9 {
        fill: #dd7830;
      }

      .cls-10 {
        stroke-width: 18px;
      }

      .cls-10, .cls-11 {
        fill: none;
        stroke: #2f1a21;
        stroke-linecap: round;
        stroke-linejoin: round;
      }

      .cls-12 {
        fill: #eda245;
      }

      .cls-13 {
        fill: #e7f1f0;
      }

      .cls-11 {
        stroke-width: 36px;
      }

      .cls-14 {
        fill: #fff;
      }

      .cls-15 {
        fill: #f2a684;
      }

      .cls-16 {
        fill: #f9e9ab;
      }

      .cls-17 {
        fill: #6b7e82;
      }

      .cls-18 {
        fill: #f7e9aa;
      }

      .cls-19 {
        fill: #ce4330;
      }

      .cls-20 {
        fill: #f3bbae;
      }

      .cls-21 {
        fill: #cf5f5d;
      }

      .cls-22 {
        fill: #f8eaad;
      }

      .cls-23 {
        fill: #9e262f;
      }

      .cls-24 {
        fill: #a42b30;
        opacity: .7;
      }

      .cls-25 {
        fill: #fae5ba;
      }

      .cls-26 {
        fill: #f5d157;
      }

      .cls-27 {
        fill: #f6cf58;
      }

      .cls-28 {
        fill: #8c8c8c;
      }

      .cls-29 {
        fill: #e27b50;
      }

      .cls-30 {
        fill: #f2902d;
      }

      .cls-31 {
        fill: #eca646;
      }
    </style>
  </defs>
  <g id="feet">
    <g>
      <polygon class="cls-9" points="790.97 1728.68 713.65 1758.1 659.02 1786.67 667.42 1823.65 724.58 1827.02 727.1 1870.72 771.64 1857.27 819.55 1818.61 862.41 1766.5 863.25 1735.41 790.97 1728.68"/>
      <path class="cls-3" d="M744.01,1887.47c-7.3,2.92-13.41,4.81-20.54,3.36-12.26-2.49-20.17-13.36-23.25-17.6-3.97-5.46-5.42-9.77-5.74-10.79-2.22-6.89-1.76-12.94-1.23-16.35-1.35.57-3.31,1.29-5.75,1.79-5.19,1.06-9.35.48-11.65.13-23.36-3.5-33.9-14.57-33.9-14.57-11.25-11.82-12.24-26.51-12.38-29.79-.56-13.35,5.07-26.55,15.08-37.15,7.25-7.68,16.43-13.28,26.44-16.66,35.23-11.93,70.81-23.57,106.73-34.9,2.67-.84,5.33-1.68,8-2.52l102.24,14.37c8.07,1.13,14.37,7.79,14.85,16.16.38,6.58-3.21,12.76-8.9,16.09l-24.19,14.13-10.64,33.04c-1.02,1.71-2.72,4.45-5.03,7.67-15.66,21.92-29.93,25.28-67.4,50.06-9.69,6.41-23.12,15.69-42.74,23.53ZM737.29,1796.7c7.87-2.85,11.03-4.64,12.51-3.18,2.92,2.89-5.76,13.45-13.26,35.3-2.92,8.5-7.34,21.69-2.99,24.8,1.04.74,2.59.91,5.6,0,11.76-3.55,18.65-15.29,19.42-16.58,5.46-9.1,21.63-23.38,69.16-45.96l11.2-34.79c.16-.48.33-.96.53-1.42-17.89-.05-35.78-.1-53.67-.14-5.65.14-11.3.28-16.95.42-30.07,11.02-60.14,22.04-90.21,33.06-1.75.83-4.83,2.6-7.28,6.02-1.56,2.17-4.92,6.87-2.94,11.07,2.07,4.38,8.35,4.75,8.68,4.76,12.28-1.48,22.02-3.49,28.58-5.04,16.6-3.92,24.89-5.88,31.61-8.31Z"/>
    </g>
    <g>
      <polygon class="cls-9" points="1278.16 1773.51 1230.54 1807.13 1228.29 1855.87 1273.68 1864.28 1292.73 1841.87 1328.03 1881.65 1372.85 1889.49 1387.42 1849.15 1421.04 1853.07 1451.86 1834.02 1436.73 1803.2 1372.29 1772.39 1324.67 1752.22 1278.16 1773.51"/>
      <path class="cls-3" d="M1370.52,1914.52c-2.19.75-12.01,3.93-24.51,1.67-15.21-2.75-24.76-11.8-34.32-20.86-6.33-6-15.25-15.81-22.97-30.26-5.36,3.5-12.3,7.59-20.73,11.48-5.35,2.47-8.92,4.1-13.73,5.33-3.11.8-13.76,3.51-24.65.7-15.84-4.09-28.37-18.9-31.8-35.16-.12-.56-.22-1.11-.32-1.66-2.05-11.91,1.1-24.13,8.17-33.94,5.28-7.32,10.55-14.65,15.83-21.97,5.81-4.86,12.19-9.85,19.17-14.84,8.46-6.04,16.66-11.28,24.4-15.8l14.76-7.08,16.43-6.37c5.54-.84,13.44-1.92,22.97-2.8,12.46-1.15,18.68-1.73,24.46-1.47,14.94.68,20.02,7.23,44.96,16.89,29.91,11.58,26.23,8.8,35.12,13.12,18.81,9.15,34.41,16.74,43,33.76,3.36,6.65,10.8,24.94,2.24,43.56-8.17,17.78-25.38,23.82-29.56,25.21-18.55,6.18-34.32-.28-38.1-1.96.02,4.36-.56,13.37-6.02,22.69-8.1,13.81-21.18,18.51-24.79,19.75ZM1292.61,1820.82c2.25-1.05,4.89-1.01,7.08.17.48.26.98.55,1.49.88,5.43,3.46,8.1,8.22,9.08,9.93,9.56,16.62,24.41,31.66,28.83,36.12,2.45,2.48,6.5,6.39,12.8,7.79,2.68.59,7.81,1.94,10.66-.62,3.43-3.07,1.72-10.04-.95-20.42-1.71-6.66-3.63-11.93-6.49-19.73-4.33-11.82-7.73-19.66-5.31-21.4.16-.12.31-.17.6-.27,4.56-1.52,10.44,2.32,11.02,2.69,3.74,2.43,14.13,6.95,34.91,16,1.47.64,21.07,9.01,32.17,5.49,2.65-.84,3.95-2.09,4.63-3.25,2.31-3.92-.72-9.53-1.69-11.32-4.69-8.68-14.15-12.68-22.83-15.97-4.46-1.69-34.84-13.23-56.68-23.77-9-4.34-10.72-5.7-17.84-8.47-13.55-5.27-25.51-7.42-33.78-8.41-.21-.03-.4.11-.46.32l-4.49,16.26c-.03.12-.12.23-.24.28l-7.2,3.26c-5.86,2.57-14.21,6.81-23.12,13.6-15.5,11.79-33.66,32.01-29.06,40.14,1.16,2.05,3.52,2.94,4.76,3.36,7.02,2.39,14.51-2.48,17.93-4.62,8.08-5.07,18.85-10.9,34.16-18.06Z"/>
    </g>
  </g>
  <g id="Layer_2" data-name="Layer 2">
    <g>
      <path class="cls-26" d="M894.09,399.41c-22.8,8.46-86.42,33.87-153.52,88.53-45.08,36.72-73.41,71.71-83.49,84.61-48.02,61.47-69.77,118.22-80.5,146.89-19.65,52.5-27.8,97.42-33.25,128.22-5.88,33.27-6.33,47.39-9.53,70.04-11.14,79.04-35.9,121.52-53.79,172.58-42.22,120.49-26.46,232.5-21.39,265.96,5.89,38.82,19.82,124.5,76.86,199.66,22.73,29.95,50.4,55.72,55.28,60.23,5.28,4.88,42.5,38.94,93.2,68.08,81.79,47.02,166.18,62.31,230.85,73.96,131.57,23.71,233.59,17.24,255.5,15.69,89.76-6.35,180.31-12.75,282.4-65,47.67-24.39,149.33-76.44,212.92-192.75,62.42-114.17,52.9-225.79,47.55-288.56-7.7-90.27-26.87-83.19-72.21-262.79-43.75-173.3-32.45-205.44-78.44-298.09-47.88-96.44-105.1-150.91-118.79-163.61-75.26-69.81-149.84-98.68-168.09-105.34-54.39-19.85-98.46-24.5-128.31-27.46-43.3-4.28-140.25-12.79-253.26,29.14Z"/>
      <path class="cls-12" d="M819.98,1530.88s-8.4,58.83-8.4,58.83c.13-.86-96.63-43.23-105.9-48.37-35.83-19.86-68.79-44.01-100.61-69.72-36.53-29.51-69.94-65.06-89.35-108.34-5.12-11.42-9.21-23.31-12.06-35.5-1.75-7.51-8.82-30.38-4.74-37.28l-21.85,36.98,5.04,114.3,92.45,159.69,87.41,67.24,87.41,42.02,40.34,23.53,21.85-62.19,13.45-67.24,30.26-36.98,33.62-42.02,10.09-28.58-58.83-10.09-20.17,43.7Z"/>
      <path class="cls-12" d="M1005.26,1768.41c3.94.27,7.89.54,11.83.82-1.15,1.41-2.29,2.81-3.43,4.22l-8.4-5.04Z"/>
      <path class="cls-12" d="M1709.01,1219.02c-9.9-40.43-19.8-80.87-29.7-121.31-16.44-36.04-32.87-72.09-49.31-108.14-12.7,18.68-25.4,37.36-38.1,56.04l-97.49,131.11,16.81,10.08h48.07c7.8,0,15.03-4.13,18.98-10.86,1.78-3.04,3.12-5.31,6.34-5.67,13.92-1.53,33.35,36.03,37.82,71.44,3.93,31.18-4.24,56.63-9.58,69.63-17.36,42.28-50.15,63.57-60.18,69.89-54.62,34.4-113.16,23.53-133.92,19.68-32.59-6.05-57.27-18.51-72.28-27.52l3.37-35.3c-32.07-28.19-64.13-56.38-96.19-84.56,1.81,11.38,3.61,22.75,5.42,34.13l-21.86,1.68c-2.04,12.46-7.17,53.63,17.44,93.92,13.42,21.96,30.48,35.17,41.4,42.24-93,114.57-185.99,229.15-278.97,343.73,25.85,1.77,51.69,3.55,77.54,5.34,59.39-4.2,118.78-8.41,178.17-12.61,58-16.25,115.99-32.5,173.98-48.74,35.58-21.58,71.16-43.15,106.74-64.72,31.84-32.87,63.69-65.74,95.53-98.61,0,0,32.44-87.28,47.07-147.93,9.97-41.34,19.46-102.69,12.89-182.94ZM1341.24,1585.66c-37.39,16.54-71.64,25.09-98.61,29.7,13.33-19.21,27.15-38.64,41.46-58.27,11.42-15.66,22.82-30.97,34.18-45.95,10.63,6.4,23.15,13.01,37.54,19.05,20.11,8.44,38.7,13.59,54.35,16.81-18.3,12.68-41.27,26.44-68.92,38.66Z"/>
      <path class="cls-22" d="M1253.66,1253.53c-1.01-12.4-2.33-42.79,12.42-50.01,5.39-2.64,11.02-1.25,13.07-.75,40.18,9.83,81.15,16.21,121.31,26.1,34.11,8.4,82.45,18.17,125.51-3.36,35.86-17.93,32.78-29.84,32.78-29.84,0,0-113,4.11-124.58-1.12-11.58-5.23-97.87-32.12-97.87-32.12l-60.51-15.32s-55.28,35.86-51.55,56.03,29.42,50.38,29.42,50.38Z"/>
      <path class="cls-16" d="M556.07,1595.88c6.01-2.54-51.93-113.06-57.63-261.15-.59-15.41-1.97-66.37,7.8-130.95,4.47-29.56,9.96-64.46,26.29-107.13,7.79-20.34,8.91-18.61,18.49-42.86,5.72-14.48,19.16-50.15,31.1-105.06,11-50.58,6.82-53.55,15.97-100.86,5.54-28.67,14.23-72.46,34.46-121.87,27.24-66.52,62.78-112.38,79.84-132.79,8.6-10.29,49.99-58.95,122.71-105.9,104.02-67.15,209.84-90.56,281.56-99.17-50.05-2.99-100.11-5.98-150.16-8.96l-184.9,88.53-97.49,91.89s-107.58,128.87-122.15,208.44c-14.57,79.56-43.7,190.51-50.43,220.76-6.72,30.26-59.39,186.02-59.39,223s8.96,161.37,8.96,161.37c9.34,31.75,18.68,63.5,28.02,95.25,50.28,106.31,64.21,128.63,66.96,127.47Z"/>
      <path class="cls-3" d="M1110.57,1798.29c-49.59,0-119.65-3.56-199.74-17.99-64.43-11.61-152.67-27.51-238.07-76.6-50.04-28.77-87.1-61.67-97.26-71.06-7.86-7.27-35.29-33.31-57.93-63.15-61.67-81.25-75.84-174.71-81.18-209.89-18.62-122.77,1.9-218.27,22.4-276.77,4.95-14.13,10.45-27.74,15.78-40.9,14.35-35.48,29.19-72.17,36.97-127.38,1.08-7.68,1.84-14.33,2.63-21.38,1.52-13.38,3.08-27.21,7.01-49.44,5.07-28.68,13.56-76.68,34.33-132.19,9.79-26.16,32.71-87.41,83.84-152.86,24.36-31.18,54.44-61.68,87.01-88.2,61.22-49.87,120.75-77.65,159.91-92.18,120.18-44.59,224.16-34.3,263.3-30.43,28.29,2.8,75.64,7.48,133.81,28.71,28.31,10.33,102.11,41.73,175.68,109.98,27.13,25.17,79.27,80.73,123.64,170.1,29.85,60.13,36.74,96.29,48.16,156.19,6.88,36.11,15.45,81.06,31.94,146.4,20.95,82.98,36.19,125.48,47.33,156.51,13.18,36.74,21.14,58.92,25.48,109.87,5.4,63.31,15.45,181.15-50.23,301.26-28.86,52.79-68.68,99.15-118.36,137.81-41.02,31.92-80.48,52.11-104.05,64.18-106.17,54.33-200.16,60.98-291.06,67.41-13.17.93-34.19,2-61.34,2ZM901.91,420.5h0c-50.85,18.86-103.1,49.01-147.14,84.88-37.9,30.87-64.4,61.09-79.96,81.01-46.87,60-67.33,114.66-77.16,140.93-19.32,51.64-27.05,95.33-32.16,124.25-3.69,20.85-5.17,33.98-6.61,46.67-.8,7.03-1.62,14.31-2.79,22.59-8.55,60.68-25.16,101.74-39.81,137.97-5.36,13.26-10.43,25.78-15.02,38.91-18.81,53.68-37.61,141.52-20.37,255.15,5.32,35.1,17.79,117.3,72.53,189.43,20.43,26.92,45.45,50.67,52.63,57.31,6.62,6.12,41.99,37.99,89.14,65.09,78.63,45.2,159.03,59.69,223.62,71.32,118.93,21.43,214.4,17.9,249.92,15.39,90.37-6.39,175.74-12.43,273.73-62.58,46.46-23.78,143.14-73.25,203.43-183.51,59.17-108.22,50.22-213.16,44.88-275.85-3.85-45.1-10.25-62.95-23-98.5-11.44-31.9-27.12-75.58-48.6-160.69-16.82-66.63-25.52-112.29-32.52-148.99-11.06-58.03-17.15-89.99-44.26-144.6-42.72-86.05-93.91-138.54-113.93-157.12-67.57-62.68-134.75-91.3-160.5-100.7-52.83-19.28-96.64-23.61-122.81-26.2-36.31-3.59-132.78-13.13-243.22,27.84Z"/>
    </g>
    <path class="cls-26" d="M1198.92,423.16l-21.85-39.5-53.79-53.79-29.42-35.3-69.76-25.21-27.74,12.61-2.52,35.3,15.97,21.85-45.39-5.88-26.05,1.68-32.78,17.65-2.52,23.53,21.85,14.29,11.77,5.04s-11.77,20.17-12.61,23.53-5.04,23.53-5.04,23.53l6.72,28.58,31.1,3.36,38.66-.84,46.23-12.61,50.43-10.93,50.43,2.52h38.66l21.01-11.77-3.36-17.65Z"/>
    <path class="cls-18" d="M993.63,463.9c-27.87-1.76-36.21-8.91-38.66-15.13-6.01-15.24,19.11-35.64,10.65-49.31-4.09-6.61-16.81-12.89-16.81-12.89h0s11.77-10.65,21.29-8.4c9.53,2.24,22.41-.56,16.25-10.09-6.16-9.53-19.61-10.65-21.85-18.49s2.8-12.89,7.28-14.57,39.22,3.36,44.26,2.24c5.04-1.12-6.72-20.17-6.72-20.17,0,0,.56-11.77,25.77-8.96,25.21,2.8,57.71,6.16,96.93,43.14,39.22,36.98,53.79,25.77,53.79,25.77l-25.21-33.06-59.39-45.95-57.15-26.33-43.14,6.16-1.12,26.89-8.96,17.93-20.17,7.84-35.86,6.72-25.77,11.21-8.96,18.49,6.72,13.45,12.89,11.77,4.48,6.16-1.12,13.45-1.12,21.85,2.24,19.05,6.72,10.65,11.77,6.16c17-1.87,33.99-3.74,50.99-5.6Z"/>
    <path class="cls-3" d="M1171.1,384.53s-11.87-17.82-44.79-49.32c-12.22-11.69-26.14-20.98-40.9-29.14-13.39-7.4-28.14-13.33-43.29-16.52-7.72-1.63-26.43-8.76-32.22-.51-3.89,5.54,3.03,14.11,5.66,18.75,1.76,3.1,3.39,5.98,5.79,9.06,1.03,1.32,2.95,3.64,10.74,10.18,5.41,4.54,13.68,8.97,16.13,16.03,3.62,10.45-13.45,9.55-19.02,9.32-11.27-.47-13.41-2.15-27.27-3.74-9.66-1.1-17.22-1.27-21.29-1.29-8.17-.04-14.28.46-16.07.62-7.97.69-14.92,1.87-20.63,3.1-10.91,3.95-25.55,10.21-24.91,15.95.24,2.1,2.44,3.46,4.46,4.59,5.69,3.19,16.92,8.54,35.86,12.33.47.05,10.05,1.19,12.75,8.31.2.54,1.17,3.23.32,6.75-1.4,5.77-6.17,7.43-14,13.7,0,0-8.58,6.88-16.44,17.93-3.48,4.9-4.94,8-5.04,11.77-.04,1.52.05,6.31,3.36,10.27,3.07,3.67,7.18,4.57,13.01,5.86,2.05.45,5.76,1.14,13.13,1.24,2.47.04,9.36.06,19.05-1.12,6.06-.74,12.43-1.55,20.54-3.92,4.9-1.44,9-3.03,12.13-4.38,1.26-.55,2.71-.53,3.93.11.88.47,1.29,1.01,1.5,1.46,3.09,6.76-21.79,29.91-50.43,35.67-8.28,1.67-15.29,1.56-18.86,1.49-11-.22-21.35-.42-31.71-6.81-2.65-1.63-12.66-7.99-17.59-20.65-4.61-11.81-2.2-22.45-.56-29.7.89-3.93,2.47-10.64,7.1-18.12,9.57-15.46,25.55-23.5,33.11-23.39.64,0,3.56.11,7.7,0,3.33-.09,6.05-.27,7.84-.42,1.96,4.67,3.92,9.34,5.88,14.01-2.53,2.45-6.71,5.92-12.61,8.4-16.7,7.03-33.26.29-40.7-2.73-6.06-2.47-15.11-6.27-22.98-15.52-3.41-4-11.76-13.81-11.49-27.6.22-11.24,6.04-19.19,9.71-24.05,12.45-16.52,30.75-21.71,42.59-25.07,14.52-4.12,25.9-4.32,41.28-4.48,19.3-.2,35.48,1.71,47.25,3.69-9.28,15.25-20.52,23.77-28.6,21.43-4.29-1.24-6.77-5.73-11.55-14.66-6.93-12.93-11.96-22.34-10.79-34.67,1.37-14.44,10.42-24.11,11.8-25.55,21.44-22.29,62.72-12.58,77.08-9.2,17.93,4.22,30.94,11.17,43.12,17.68,4.94,2.64,20.84,11.37,40.59,27.41,15.65,12.71,37.76,33.32,59.42,64.17.93,3.43,4.17,16.92-3.47,27.44-1.58,2.17-4.79,6.6-9.48,6.96-7.24.55-13.33-8.97-16.12-13.16Z"/>
  </g>
  <g id="eyes">
    <ellipse class="cls-3" cx="775.15" cy="826.48" rx="58.43" ry="76.82"/>
    <ellipse class="cls-14" cx="785.61" cy="798.5" rx="20.69" ry="18.47" transform="translate(-162.45 1395.15) rotate(-77.65)"/>
    <ellipse class="cls-3" cx="1218.25" cy="836.41" rx="58.43" ry="76.82"/>
    <ellipse class="cls-14" cx="1220.37" cy="808.46" rx="18.08" ry="15.75" transform="translate(380.49 2007.42) rotate(-88.51)"/>
  </g>
  <g id="Layer_4" data-name="Layer 4">
    <path class="cls-31" d="M1095.5,939.02c-1.48.78-3.26,10.67-3.97,12.68-1.58,4.52-3.32,8.98-5.24,13.36-11.6,26.61-29.72,49.86-52.44,67.9-5.76,4.58-11.83,8.77-18.23,12.42-17.69,10.08-38.47,11.16-57.62,4.25-.19-.07-.38-.14-.56-.21-11.98-4.44-21.68-12.67-30.77-21.44-9.56-9.23-19.82-21.04-21.32-34.8-2.24-20.54,22.41,3.36,22.41,3.36l60.14,20.92,44.08-13.45,20.17-30.26,22.79-23.91s20.54-10.83,20.54-10.83Z"/>
    <polygon class="cls-30" points="993.52 855.72 1033.87 884.48 1065.24 909.88 1080.56 934.91 1052.54 980.11 1007.35 1009.62 969.99 1019.7 925.17 996.17 903.13 972.64 908.73 919.22 928.9 891.21 958.79 865.8 993.52 855.72"/>
    <path class="cls-5" d="M1008.84,873.65c-7.09-2.99-16.84-5.63-25.03-1.49-5.83,2.95-6.2,6.96-13.82,16.06-10.07,12.01-15.04,11.69-23.91,21.67-4.57,5.14-10.32,13.18-14.57,25.4l-2.61,7.84-13.82,7.1-28.39-12.7,14.57-14.57,22.41-16.81,24.28-22.41,15.32-16.06,14.57-7.47,24.65,1.49,9.71,4.48-3.36,7.47Z"/>
    <path class="cls-1" d="M980.08,861.32s-26.15,27.64-36.98,38.47c-10.83,10.83-25.77,32.87-39.97,33.99s-31.38-4.48-31.38-4.48l31-38.1,73.96-39.97,3.36,10.09Z"/>
    <path class="cls-3" d="M950.09,974.43c-14.82-1.02-30.19-3.53-60.9-9.08-6.18-1.12-22.09-4.18-34.02-15.92-3.44-3.38-4.84-5.8-5.57-8.26-1.42-4.79-.87-11.7,12.54-29.28,13.18-17.27,26.09-28.49,34.86-35.64,6.68-5.45,15.83-12.92,29.57-20.83,23.07-13.27,36.62-14.6,41.07-15.04,5.26-.52,10.61-.51,15.49.02,11.09,1.21,19.58,4.79,27.1,8.49,11.87,5.83,28.13,13.81,45.64,29.72,5.13,4.66,7.6,7.5,9.77,10.01,2.13,2.46,4.15,4.78,9.53,9.64l1.25,1.12c6.57,6.06,11.18,11.8,14.24,16.06,5.68,7.91,8.53,11.98,8.47,17.79-.08,8.34-5.96,14.09-6.78,14.87-4.28,4.07-9.51,6.72-20.35,7.28-26.22,1.36-23.98,10.76-64.19,16.81-14.19,2.14-33.85,3.88-57.71,2.24ZM887.34,931.57c3.82,1.8,9.6,4.38,16.81,7,35.82,13.05,66.08,12.43,75.08,12.05,16.29-.69,28.51-3.35,38.66-5.61,18.48-4.11,33.65-9.59,44.82-14.29-3.27-5.14-8.3-12.17-15.52-19.53-4.16-4.24-7.46-6.93-13.9-12.13-18.01-14.57-29.31-20.99-35.76-24.33-4.41-2.28-9.98-4.88-17.54-5.71-2.89-.32-6.28-.31-9.54,0-7.85.77-17.78,4.59-29.52,11.34-3.18,1.83-6.07,3.63-8.71,5.38-4.29,2.84-9.38,6.47-17.01,12.79-14.43,11.97-21.73,18.15-25.92,27.69-.96,2.2-1.59,4.08-1.96,5.32ZM969.05,854.71h0,0Z"/>
    <path class="cls-3" d="M978,1033.7c-2.24-.07-10.94-.44-21.69-4.15-14.62-5.04-27.54-14.36-48.47-30.26,0,0-10.58-8.03-52.67-49.87-1.6-1.59-5.25-5.32-5.04-10.09.12-2.68,1.41-4.76,2.24-5.88,14.35,4.75,28.69,9.49,43.04,14.24,14.93,12.4,26.43,22.43,33.99,29.14,3.26,2.89,15.27,13.57,32.16,22.9,4.88,2.7,10.81,5.64,18.44,5.36,3.91-.14,7.94-1.11,16.2-5.35,10.95-5.63,18.36-11.34,26.61-17.8,11.52-9.01,18.99-16.34,22.65-20.05.65-.66,3.02-3.08,6.09-6.45,5.93-6.5,13.93-15.95,22.75-28.59,8.21,1.24,16.42,2.48,24.63,3.72.27,1.64.56,4.12.46,7.13-.21,6.15-2.11,19.82-34.11,48.93-4.39,3.99-13.94,12.48-27.08,22.23-24.22,17.95-35.38,21.43-41.82,22.93-8.91,2.06-15.96,1.98-18.37,1.9Z"/>
  </g>
  <g id="Layer_8" data-name="Layer 8">
    <g id="pencil">
      <path class="cls-28" d="M782.47,1799.94l-14.57,103.66,48.75-13.45,56.03-34.18-19.05-34.74s-29.7-18.49-35.86-18.49-35.3-2.8-35.3-2.8Z"/>
      <path class="cls-8" d="M776.26,1900c16.62-26.52,33.25-53.04,49.87-79.56,0,0-15.13-11.77-22.41-4.48-7.28,7.28-17.37,6.72-17.37,6.72l8.96-17.93s49.87-16.81,66.68,33.06c-1.69,5.53-3.83,10.36-6.16,14.57-20.41,36.87-66.14,45.56-79.56,47.63Z"/>
      <polygon class="cls-23" points="1692.65 737.91 1758.77 824.2 1049.42 1747.59 993.38 1698.29 978.82 1691.56 1692.65 737.91"/>
      <polygon class="cls-19" points="1691.53 762.57 975.45 1707.25 964.25 1656.82 911.58 1641.13 1047.17 1437.18 1625.41 689.73 1691.53 762.57"/>
      <polygon class="cls-4" points="977.04 1698.38 847.61 1813.8 864.98 1840.7 909.24 1835.65 1010.66 1779.06 1032.51 1743.2 1025.23 1720.23 998.89 1709.59 977.04 1698.38"/>
      <polygon class="cls-2" points="888.51 1613.77 818.47 1795.31 851.53 1817.73 973.68 1702.86 956.31 1656.36 926.05 1649.07 911.49 1649.07 899.72 1632.26 888.51 1613.77"/>
      <path class="cls-25" d="M890.19,1632.26c-1.68.56-67.24,164.73-67.24,164.73l-26.89.56,22.41-146.24,20.73-39.78,29.7-6.72,21.29,27.46Z"/>
      <polygon class="cls-29" points="918.3 1643.38 1627.66 695.33 1579.47 686.37 886.93 1608.92 918.3 1643.38"/>
      <polygon class="cls-15" points="1590.11 681.32 886.93 1608.92 850.79 1597.99 1555.1 654.99 1590.11 681.32"/>
      <polygon class="cls-21" points="1710.3 701.77 1794.09 584.72 1841.97 640.14 1835.25 713.54 1792.67 759.49 1772.78 782.74 1710.3 701.77"/>
      <path class="cls-7" d="M1795.84,586.29c.11-.22-1.19-1.17-1.75-1.57-51.2-37.29-92.38-32.54-92.38-32.54-13.92,1.64-25.63,6-34.74,10.59l-41.46,38.23-17.37,27.64,47.07,44.7c23.13,15.18,46.26,30.35,69.39,45.53,15.72-19.29,31.44-38.58,47.16-57.88,23.55-35.06,23.6-50.23,18.96-57.55-2.11-3.32-8.28-9.92-19.52-25.68-1.69-2.37-3.05-4.33-3.92-5.59,13.87,7.37,28.22,14.8,28.58,14.12Z"/>
      <path class="cls-20" d="M1583.39,614.13l71.44-91.75,68.92,8.82c23.1,12.48,46.19,24.96,69.29,37.44-4.39,7.74-8.78,15.49-13.17,23.23-6-6.26-24.91-24.37-55.19-28.92-9.18-1.38-40.81-8.98-62.38,12.55-22.79,22.74-45.2,56.07-45.2,56.07l-25.03-7.45-8.68-10Z"/>
      <polygon class="cls-17" points="1721.23 713.82 1660.15 786.66 1720.67 855.58 1772.78 782.74 1721.23 713.82"/>
      <path class="cls-13" d="M1575.55,727.83l50.99-68.36s-22.41-13.45-36.42-17.37-35.02,12.89-35.02,12.89l-33.34,45.95,54.35,29.14-.56-2.24Z"/>
      <polygon class="cls-6" points="1622.61 662.27 1575.55 721.1 1665.76 801.79 1719.55 726.15 1631.02 654.99 1619.25 660.59 1622.61 662.27"/>
      <path class="cls-24" d="M909.9,1514.78s69.76,11.77,102.54-12.61,81.53-62.19,85.73-67.24,39.5-46.23,43.7-65.56,9.25-54.63-.84-70.6-41.18-32.78-41.18-32.78l-189.95,248.78Z"/>
      <path class="cls-11" d="M828,1615.17c425.65-568.08,736.51-980.82,783.23-1043.44,7-9.38,27.21-36.18,60.05-43.13,35.82-7.58,64.69,11.43,92.34,29.64,29.04,19.12,74.83,49.27,78.44,100.48,2.36,33.42-15.18,60.38-22.79,71.35-48.03,69.24-354.13,474.14-777.3,1026.34"/>
      <path class="cls-3" d="M749.04,1912.7c-2.97-8.65-1.36-16.97-.38-21.97.02-.11.01-.05,1.73-8.09,0,0,1.87-8.75,2.02-9.45,17.45-81.48,34.89-162.96,52.34-244.44,3.46-20.18,10.01-26.88,15.64-29.08,1.12-.44.95-.21,7.61-1.59,12.15-2.52,15.84-4.29,22.69-5.32,11.68-1.76,17.52-2.64,20.73-2.24,17.91,2.2,29.9,16.75,33.76,23.98,1.5,2.81,2.6,5.84,2.6,5.84,1.92,5.3,2.56,10.26,2.72,14.47,9.16-3.21,21.92-6.75,36.53-1.73,30.64,10.53,39.02,44.52,39.37,46.14,1.03,4.83,1.26,8.92,1.29,11.6,4.06-.76,10.9-1.55,18.77.28.81.19,1.37.38,1.84.52,15.86,4.83,27.11,16.57,27.11,16.57,3.07,3.2,7.11,7.49,10.09,14.29,2.52,5.76,1.58,7.16,3.55,13.17,4.75,14.52,14.21,15.79,12.47,23.21-1.63,6.91-10.43,14.36-12.89,16.44-2.28,1.92-5.63,4.39-5.88,4.58-1.87,1.37-5.1,3.67-9.34,6.26-5.67,3.47-10.19,5.66-10.83,5.98-11.6,5.75-210.18,120.11-236.96,133.49-1.87.94-7.38,3.69-14.57,3.5-2.77-.07-8.28-.22-13.49-3.9-5.56-3.93-7.49-9.54-8.5-12.49ZM853.44,1620.02c-4.21,1.16-6.15,2.98-6.72,3.56-3.59,3.59-3.91,8.54-4.06,10.37-.64,7.5-3.45,20.04-8.64,38.66-9.16,38.38-18.13,77.36-26.88,116.95-7.09,32.04-13.88,63.78-20.39,95.21,130.55-83.53,180.25-103.25,194.84-111.9,18.47-10.94,29.69-17.69,32-19.03,4.84-2.8,7.44-8.42,6.15-13.86-.01-.04-.02-.09-.03-.13-2.2-9.09-9.99-15.17-17.01-17.43-5.34-1.72-10.29-1.25-14.69-.82-8.26.8-10.63,3.15-15.83,1.82-5.75-1.47-9.16-5.95-10.02-7.07-4.69-6.16-2.7-10.97-4.55-20.85-.59-3.13-4.25-22.6-18.3-29.88-4.85-2.51-9.83-3-11.95-3.11-6.11-.32-8.36,1.47-18.31,3.11-7.98,1.32-11.97,1.97-14.94.75-7.84-3.23-9.87-15.1-10.46-20.17.18-1.2,1.88-14.08-6.72-21.67-9.34-8.23-21.22-5.12-23.49-4.49ZM822.43,1632.17h.01-.01Z"/>
      <path class="cls-11" d="M1525.4,694.86s14.35,6.9,35.48,18.72c48.82,27.29,133.87,80.79,162.03,135.93"/>
      <path class="cls-11" d="M1575.83,629.31c31.34,12.75,73.93,34.08,117.67,69.76,37.74,30.79,64.53,62.63,82.7,87.89"/>
      <path class="cls-10" d="M866.38,1853.63c-.21-3.04-2.47-29.58-26.15-45.15-21.41-14.08-43.95-8.41-47.44-7.47"/>
    </g>
    <g id="hand">
      <polygon class="cls-27" points="713.7 1146.38 799.42 1173.27 1036.43 1253.96 1115.94 1282.21 1118.8 1348.09 1075.1 1386.75 1002.82 1405.24 923.81 1418.69 799.42 1406.92 686.8 1353.13 636.37 1304.39 614.52 1213.62 654.86 1159.83 713.7 1146.38"/>
      <polygon class="cls-26" points="1481.88 1219.78 1345.17 1402.44 1264.48 1283.66 1230.86 1216.42 1296.98 1181.68 1364.22 1195.13 1471.8 1207.45 1481.88 1219.78"/>
      <path class="cls-22" d="M1253.66,1253.53c-1.01-12.4-2.33-42.79,12.42-50.01,5.39-2.64,11.02-1.25,13.07-.75,40.18,9.83,81.15,16.21,121.31,26.1,34.11,8.4,82.45,18.17,125.51-3.36,35.86-17.93,32.78-29.84,32.78-29.84,0,0-113,4.11-124.58-1.12-11.58-5.23-97.87-32.12-97.87-32.12l-60.51-15.32s-55.28,35.86-51.55,56.03,29.42,50.38,29.42,50.38Z"/>
      <path class="cls-12" d="M1677.99,1226.5c-13.45-35.49-26.89-70.97-40.34-106.46-1.51-1.25-17.55-15.07-15.69-36.98,1.63-19.24,15.8-29.84,17.93-31.38-8.96,15.69-17.93,31.38-26.89,47.07-17.56,11.21-35.11,22.41-52.67,33.62-16.37,18.14-32.74,36.29-49.1,54.43h43.33c10.16,0,19.46-5.17,25.34-13.46,1.19-1.68,2.51-2.82,4.72-3.07,13.92-1.53,33.35,36.03,37.82,71.44,3.93,31.18-4.24,56.63-9.58,69.63-17.36,42.28-50.15,63.57-60.18,69.89-54.62,34.4-113.16,23.53-133.92,19.68-32.59-6.05-57.27-18.51-72.28-27.52l3.37-35.3c-32.07-28.19-64.13-56.38-96.19-84.56,1.81,11.38,3.61,22.75,5.42,34.13l-21.86,1.68c-2.04,12.46-7.17,53.63,17.44,93.92,13.42,21.96,30.48,35.17,41.4,42.24-.21.25-.25.46-.25.61.28,10.58,248.19,84.08,346.32-37.11,44.62-55.11,40.43-128.43,35.86-162.49Z"/>
      <path class="cls-22" d="M754.14,1155.47s-12.33,23.81,80.12,81.81c92.45,57.99,213.48,57.15,213.48,57.15,0,0,29.42-.84,41.18,17.65,11.77,18.49,17.65,38.66,17.65,38.66,0,0,15.13-13.45,15.13-35.3s-24.37-44.54-35.3-50.43c-10.93-5.88-74.8-17.65-88.25-22.69s-57.15-22.69-86.57-28.58c-29.42-5.88-89.93-31.94-103.38-39.5-13.45-7.56-49.59-25.21-49.59-25.21l-4.48,6.44Z"/>
      <path class="cls-12" d="M1063.06,1369.04c-22.71,7.6-45.67,14.66-68.83,20.79-22.93,6.07-46.63,8.56-70.27,9.76-38.83,1.97-78.27,2.5-116.61-4.89-60.96-11.75-116.59-53.57-162.19-94.1-11.2-9.95-21.23,17.42-22.14,23.61-10.16,69.39,49.25,138.38,101.36,176.24,32.1,23.32,69.55,38.01,104.84,55.65,4.26-7.51,8.52-15.03,12.78-22.54,5.05-7.43,14-18.94,28.02-29.14,45.11-32.82,86.08-10.76,121.03-42.58,11.96-10.89,6.01-12.42,32.5-47.07,15.46-20.21,29.68-35.64,39.51-45.72Z"/>
      <path class="cls-3" d="M766.01,1141.24c23.12,13.07,46.89,24.97,71.33,35.32,22.56,9.48,51.82,18.37,75.42,26.19,9.96,3.3,20.23,6.54,30.3,9.27,19.95,5.47,40.62,9.62,61.05,13.3,20.49,1.7,63.4,8.67,91.64,19.33,8.79,3.33,17,6.9,25.08,12.99,13,9.89,21.32,24.87,24.55,40.74,5.92,30.95-10.16,57.32-31.49,78.14-7.29,7.33-15.67,13.95-24.68,19.03-30.34,17.51-67.19,21.31-101.01,16.06-7.73-1.22-15.37-2.89-22.81-5.31-2.86-.93-4.43-4.01-3.5-6.87.69-2.12,2.55-3.53,4.64-3.74,28.18-3.07,56.76-7.97,82.07-19.34,15.21-6.87,27.63-15.6,37.99-27.52,5.78-6.49,10.84-12.95,14.64-20.56,2.75-5.75,4.65-12.19,3.9-18.51-.59-6.52-3.86-13.37-8.58-17.89-4.22-3.47-10.03-6.01-15.62-8.21-25.38-9.42-56.31-15.99-81.47-19.53-4.11-.6-1.18-.17-2.11-.31,0,0-.06-.01-.06-.01l-.13-.03-.25-.06-.5-.11c-21.41-4.74-42.72-9.91-63.7-16.55-10.54-3.28-21.26-7.19-31.59-11.11-20.66-7.77-41.07-15.33-61.4-24.47-20.35-9.32-39.89-20.5-58.63-32.72-9.31-6.1-18.4-12.52-27.19-19.3-4.79-3.7-5.68-10.58-1.98-15.37,3.38-4.38,9.42-5.5,14.08-2.84h0Z"/>
      <path class="cls-3" d="M1058.68,1406.09c-1.35,18.69-9.12,37.33-22.02,51.04-11.95,12.58-26.1,20.92-41.11,28.83-32.75,16.94-70.8,22.44-107.29,21.85-15.05-.13-29.59-.45-44.82-1.87-48.36-4.72-95.97-20.62-136.68-47.29-27.24-18.43-51.17-42.62-66.73-71.74-4.31-8.4,5.49-16.92,13.18-11.47,3.25,2.45,8.24,6.27,11.55,8.84,55.11,42.74,111.73,73.01,182.45,78.12,12.85,1.07,28,1.04,41.21,1.12,9.02,0,17.86-.26,26.73-.98,17.01-1.54,33.53-4.6,49.6-10.71,7.84-3.04,15.56-6.69,22.91-10.81,9.31-5.45,19.02-11.33,24.68-20.46,3.67-5.77,6.03-12.36,7.07-19.23,4.99-24.64,40.26-20.34,39.28,4.77h0Z"/>
      <path class="cls-3" d="M1319.29,1344.04c-17.62-5.83-33.72-15.62-48.37-26.96-25.07-19.23-46.15-43.84-59.93-72.49-6.12-12.54-9.85-25.84-10.95-39.95-1.37-14.97,2.39-31.15,10.16-44.22,9.62-17.2,27.54-31.85,47.51-34.64,17.36-2.54,33.93-.24,50.67,3.03,18.09,3.58,35.98,10.84,52.7,17.7,10.17,3.99,20.29,7.33,30.86,10.16,15.4,4.03,34.17,7.93,50.22,11.54,15.82,3.57,33.85,7.86,49.58,10.71,22.66,4.21,45.36,5.97,68.85,8.08.24.01.32.38.11.49-11.96,6.95-25.03,11.6-38.41,14.96-10.53,2.54-21.27,4.17-32.1,4.76-24.1,1.51-48.36-2.4-71.97-5.97-11.87-1.83-23.7-3.68-35.58-6.34-17.73-3.7-35.87-10.33-52.49-17.08-14.98-5.92-29.98-10.26-45.84-12.46-8.2-1.18-18.54-2.13-25.43.04-7,2.61-12.4,7.67-16.51,14.15-23.21,35.5,23.63,90.19,48.36,114.51,12.13,11.73,25,21.86,38.11,32.88,8.27,7.19.88,20.36-9.54,17.1h0Z"/>
      <path class="cls-3" d="M1543.75,1476.36c-46.6,21.74-101.18,27.72-151.15,14.53-29.78-7.7-57.7-22.3-82.47-40.12-16.28-11.77-30.75-22.86-46.23-35.75-16.28-13.65-31.14-29.95-40.47-49.36-18.85-38.21-17.19-84.66,1.28-121.89,2.43-4.92,8.38-6.93,13.3-4.5,4.01,1.98,6.09,6.31,5.4,10.51-2.98,17.88-4.1,35.6-2.26,52.51,2.75,24.93,11.37,48.14,28.06,66.5,11.69,12.73,26.41,23.23,40.72,33.91,34.98,27.03,73.56,50.01,117.84,54.78,34.53,4.18,69.46-1.4,101.84-14.21,21.85-7.72,34.9,22.5,14.15,33.1h0Z"/>
    </g>
  </g>
</svg>