<svg xmlns="http://www.w3.org/2000/svg" viewBox="0 0 1400 360"><defs><style>.cls-1{fill:#feffff}.cls-1,.cls-16,.cls-25,.cls-32{stroke-width:0}.cls-16{fill:#f3e4a1}.cls-25{fill:#2f1e26}.cls-32{fill:#da752f}</style></defs><g><path d="M189.4 61.5a84 84 0 0 1 56 40.3q.7.7 1.3 0l6.5-8.4a20 20 0 0 1 29.4-2.6l7.4 6.8a18 18 0 0 1 2.5 23.9l-27.8 38.1a2 2 0 0 0-.3 2c4.3 10.3 38 100-45.3 126.3l10.7 5c5 2.5 6.2 16.2-8.3 14 0 0-6.2 16.6-18.5-1.5 0 0-10.6 8.4-14.9-2.8 0 0-2-4.3 3.6-8.7 0 0-22.5 1.8-31 .5q-1.9-.3-3.5.6l-35.5 20.3q-1.7 1-3.5.4c-1.6-.6-3.1-2.3-2.5-6.8 0 0-8.2 3.7-9.1-6.5 0 0-6.7 2.3-9.6-4.3-1.3-2.7-.8-6 1.2-8.3s6.1-4.5 13.7-6c0 0-29.1-12.4-39.6-36.9a89 89 0 0 1-4.5-63.5S76.6 156.1 79 140c2.3-16 14.2-57 57.3-74.7q.3-.1.3-.5c-.2-2-.4-10.7 15.4-10.1q.4 0 .3-.4c-.7-2-3-10.4 8.7-10 0 0 13.1 0 25.4 15.5q1.2 1.5 3.1 1.8Z" style="stroke-width:0;fill:#311b1e"/><path d="m212.1 291.6 12.6 5.6q1.5.8 2 2.4c.2 1.3-.3 2.7-4.5 1.5l-9.5-4.3s0 1.6 1.9 5.7q.7 1.5.6 3 .1 1.5-.7 1.9c-1.4.4-3.2.1-7.5-6.5l-2.1-3s-3.7 2.4-6.2 3.3-4.4 1.3-4.7-.2 4.5-7 8.5-8.1c3.4-1 5-.7 7-1.4q1.4-.5 2.6 0M120.4 288.2l-2.5 11.4q-.4 2-2 3.2c-1 1-2.5 1.9-3 .6-.5-2 2.1-7.4 3-9q0-.3-.3-.2c-2 .6-10.3 3-12.1 2.3-2-1-1.4-3 1.6-4s10.5-3.4 12.9-4.5q1.1-.6 1.6-.6.9 0 .8.8Z" class="cls-32"/><path d="m116 190.3.5.7c4.3 5 20 12.5 34.1 15.7 14.8 3.4 19.9 3.2 22.7 7.9q1 2-.7 4.5a25 25 0 0 1-7.7 6.6 29 29 0 0 1-8.3 3.5l-5 1q-.8.3-.5 1c1 1.8 5.3 1.8 6.8 1.7q.5 0 .4.5c-2.4 8-24 8.3-35.7 5.5A62 62 0 0 1 100 226q-.6-.3-1 0c-.8 1-.4 2.3.3 3.6a14 14 0 0 0 2.2 3.2c13.2 15 33 14.5 35.6 14.4q.1 0 0 .3L127 261q-1.2 1.6-1.6 3.4l-3.1 15.3q-.2.3-.5.3a72 72 0 0 1-43.9-38.7c-7.6-15.5-5.3-24.5-6.2-34.2q-.2-4.4.3-9c1.3-9.8 5.2-20.6 7.9-28.4 3.5-10.3 6.4-32 9.5-42.7A84 84 0 0 1 141.5 71q.3 0 .2.3a9 9 0 0 0-1 6.5c4 8.1 14.4 4.1 17.7 1.4s1.3-3.1.2-2.5c-.8.4-4.6 1.7-7.8 1.7q-3.1.1-4.4-1.7c-1.4-2.5 1.3-4.5 3.3-6.2q1.4-1 1.9-2c1-1.8-1.4-2.7-3.9-3.3l-1.6-.4c-1.9-.5-2.6-1-2.9-1.5v-.7q2-2 5.4-2.6c4.4-.7 9.8.1 12.4.6 4 .6 3-2 2.3-2.6s-3-2-4-3.5l-.3-.5-1.2-2.6q-.2-.6.3-1c2-1 7.5.5 7.5.5A40 40 0 0 1 183 64.6a8 8 0 0 0 3.7 3.1c3.5 1.6 8 2.5 8 2.5 26.8 6.7 43.6 31.8 47 37.4a2 2 0 0 1 0 2.2l-70.9 94.6a1 1 0 0 1-1 .4c-3.2-.7-18.3-3.8-29.9-7.2-13-3.8-18.2-9.1-21.3-9.6s-2.6 2.3-2.6 2.3Z" style="stroke-width:0;fill:#f8d057"/><path d="M267.2 226.2a68 68 0 0 1-18.5 36.2c-13 13.8-35.5 21-45.8 22.7a155 155 0 0 1-35.3 2.3.3.3 0 0 1-.2-.4l36.9-49.2q.2-.3.6-.1c2.5 2.1 18.3 14.3 36.3 5.7q1.4-.6 2.3-1.8c.6-.7 1.1-1.7.5-2.7q-.6-.7-1.5-.6l-6.3 1.4c-5 1.3-15.4-.6-21.6-3.6-6-3-20-11.8-18.5-22q.1-.3.5-.2c1.5 1.2 7.5 5.6 12.2 5.8q0 0 0-.2a49 49 0 0 1-12.1-15.3q-1-2.2-1.4-4.7s-1.6-6.2 3.4-7.4q1.4-.3 2.7 0c1.6.2 4.6 1 10 3 8.9 3.2 20.7 5 29.1 4q4.2-.5 6.2-1.5t1.9-2-2.2-1.3l-7.3-.3a.4.4 0 0 1-.2-.6l19.3-26.2q.3-.2.6.1c1 3 5 15.2 6.5 20.8 1.9 6.5 4.8 26 1.9 38.1" style="stroke-width:0;fill:#e99e43"/><path d="M159.1 286.7 136 300.5q-.4.1-.6-.2c-.3-.8-1-2.5-2.5-4a10 10 0 0 0-7.1-3q-.5 0-.5-.6l5.8-25.5q.3-1 1.3-1.4.7-.2 1.8 0a4 4 0 0 1 3.2 2.3q.3.8.3 1.8v1c-.4 2.6 1.8 3.2 3.8 2.5s4-1.3 5.9.4c1.7 1.5 2.2 4 2.4 6.7v.3s.2 2 3.3 1.6c2.9-.3 5-1 6.5 3q.2.8-.5 1.3Z" style="stroke-width:0;fill:#ebbf92"/><path d="m124.7 297.6-2.1 9.5q0 0 .1 0l5-8.5q.4-.6-.2-1a4 4 0 0 0-2-.6q-.6 0-.8.6" style="stroke-width:0;fill:#5b5e65"/><path d="M268.9 142.1 231 192.6q-.5.5-1.1.4-2.2 0-10.4-2l43.3-57q3 2.8 6 6.5.4.7 0 1.6Z" style="stroke-width:0;fill:#a72a2e"/><path d="m251.5 125-27.4 37.2-18.4 24.5c-3.4-1-5.9-1.5-8.3-.7l48.2-64.5q2.4 1.3 5.9 3.4" style="stroke-width:0;fill:#e2754a"/><path d="m276.9 130.8-3.2 5q-.4.5-1 0a70.6 70.6 0 0 0-25.9-20.7 1 1 0 0 1-.3-1.4l3-4a1 1 0 0 1 1.1-.4q1.6.6 5.6 2.8a67 67 0 0 1 20.7 18z" style="stroke-width:0;fill:#a7bbbc"/><path d="m286.8 118-5 7.4q-.6.6-1 0c-1-1.2-3.1-3.9-6.3-7.1a63 63 0 0 0-20-13.9.6.6 0 0 1-.3-.9l4.3-6.2a11.5 11.5 0 0 1 16.1-2.8l4.9 3.4 2.9 2 1.3 1c5.5 4 7 11.6 3 17.2Z" style="stroke-width:0;fill:#e58378"/><path d="M180.5 61.4c-12.8-9.2-18.8-8.2-21.2-6.8l-.3-.5-1.2-2.6q-.2-.6.3-1c2-1 7.5.5 7.5.5 7.4 3 12 7.2 14.9 10.4M147.7 65.3 146 65c-2-.4-2.6-1-2.9-1.5v-.7q2-2 5.4-2.5c2.1.6 4.6 1.6 5.6 2.9 1.4 1.8-3.7 1.7-6.5 2.2M150.8 78.5q-3.1.1-4.4-1.7c-1.4-2.5 1.3-4.4 3.3-6.2-.6 1.2-1.3 3-1.5 4-.1 1.9-.3 3.1 2.6 4M172.6 219.1c-2.3-7.3-14.7-6.6-14.7-6.6-16-1-27-7.3-35.4-13.5-5-3.7-6-6.4-6-8 4.3 5 20 12.5 34.1 15.7 14.8 3.4 19.9 3.2 22.7 7.9q1 2-.7 4.5M158.3 233.4c-2.4 8-24 8.3-35.7 5.5A62 62 0 0 1 99.9 226q-.6-.3-1 0c-.8 1-.4 2.3.3 3.6-3.2-4-4-10-2.8-13.4 1.6-4.8 6.6 1.6 12.8 6.4a48 48 0 0 0 17.5 6.7c13.1 4 31.1-1.2 38.2-3.7a29 29 0 0 1-8.3 3.5l-5 1q-.8.3-.5 1c1 1.8 5.3 1.8 6.8 1.7q.5 0 .4.5" class="cls-16"/><path d="M137 247.6 127 261q-1.2 1.5-1.6 3.3l-3.2 15.3q0 .4-.4.3a72 72 0 0 1-43.9-38.7c-7.6-15.5-5.3-24.5-6.2-34.2q-.2-4.3.3-9c5 51.4 54 62 54 62l.6-5.1s-12.4-5.3-19.9-12.8c-4.7-4.7-6-8.6-6.4-10.8l1.2 1.5c13.2 15 33 14.5 35.6 14.4z" style="stroke-width:0;fill:#e99c40"/><path d="M141.7 71.4a9 9 0 0 0-1.2 5.4c-4.3 2.4-13 7.1-17 10a81 81 0 0 0-25.6 33.3c-4.9 15-4.7 14.7-8 31.5s-7.2 25.8-9.4 31.1c-1.8 4.4-9.7 30.8-2.7 58.6-7.6-15.5-5.3-24.5-6.2-34.2-1-11.7 4.7-27 8.2-37.4s6.4-32 9.5-42.7A84 84 0 0 1 141.5 71q.3 0 .2.3" class="cls-16"/><path d="m195.6 264.7 12.5-16.4s7.7 5.3 14.7 5.6c0 0-9 7.4-27.2 10.8" style="stroke-width:0;fill:#f3cf54"/><path d="M257.4 208.1c-.5 14.3-12.9 23.7-27.5 23.5-14.6-.3-19.6-9-19.6-9s4.8.2 4.2-1.9c0 0-9.7-4.4-16.7-14.2a25 25 0 0 1-2.5-7s-1.6-6.2 3.4-7.4q1.4-.3 2.7 0c1.6.2 4.6 1 10 2.9 8.9 3.3 20.7 5 29.1 4q4.2-.4 6.2-1.4t1.9-2q1-1 1.6-2.6.5-1 1.4-.6c2 1.2 6.1 5 5.8 15.7" style="stroke-width:0;fill:#f8d158"/><path d="M246.7 197.6c-3 8.2-20.3 5.8-30 4l-4.4-1c-6.7-1.7-8.7-3.3-12.2-2.2-2 .6-3 3.2-3.4 5.9q-.9-2-1.3-4l-.1-.8s-1.6-6.2 3.4-7.4q1.4-.3 2.7 0h.2c1.6.3 4.6 1 9.8 3l4.2 1.3a70 70 0 0 0 25 2.7q4-.5 6-1.5Z" style="stroke-width:0;fill:#f8e8aa"/><path d="M171.9 157.4q-.7 1.3-2.1 2.8c-3.3 4-9 9.1-14.4 10.5q-2.4.5-4.6 0a27 27 0 0 1-8.8-4.2q-4.4-3-9.3-9.1-1.4-2-.4-4a33 33 0 0 1 12.4-11.3s3-2.6 7.4-2.5c4.6 0 8 2 17.3 10.1 0 0 5 3.8 2.5 7.7" style="stroke-width:0;fill:#2d1d1e"/><path d="M169.8 160.2c-1.6 5.7-8 10.7-10 12-2.2 1.5-6.2 3.8-12 .7-3.3-1.8-5-4.5-5.8-6.4a27 27 0 0 0 8.7 4.1q2.4.7 4.6.1a33 33 0 0 0 14.5-10.5" style="stroke-width:0;fill:#eaa548"/><path d="M279.5 98c-6-2.4-9.7-2.8-13.2-1.8-2.8.8-6.8 6-9.1 9.5l-2.8-1.3a.6.6 0 0 1-.3-.9l4.4-6.2a11.5 11.5 0 0 1 16-2.9z" style="stroke-width:0;fill:#f4d2c9"/><path d="m286.8 118-5 7.4q-.6.6-1 0c-1-1.2-3.1-3.9-6.3-7.1 6.3-6 7.5-7.9 8.6-12.2.7-2.5 0-4.6-.7-6.1l1.3 1c5.6 3.9 7 11.5 3 17Z" style="stroke-width:0;fill:#d1615f"/><path d="m256.2 112.1-4.1 5.8q-2.4-1.6-5.2-2.8a1 1 0 0 1-.4-1.4l3-4a1 1 0 0 1 1.1-.4z" style="stroke-width:0;fill:#e7f1f0"/><path d="m276.9 130.8-3.2 5q-.4.5-1 0c-.8-1.2-3-3.9-6.2-7 1.4-1.4 3.5-3.7 4.5-5.6q3 3 5.9 7z" style="stroke-width:0;fill:#718387"/><path d="M245.6 121.5 197.4 186l-2 .8q-3.2 1.8-5 5.3c-1 1.8-2 4.2-1.9 6.8l-9.2 13.6a9 9 0 0 0-2.6-4.4 1 1 0 0 1-.1-1.1l64.8-86.4q.7-.8 1.5-.4z" style="stroke-width:0;fill:#f4a886"/><path d="m199.1 234-35.5 48q-.2.1-.5-.1c-.8-1.3-3.2-5-8-4.7l-.7-.3 39-51.3c2.3 3.8 4.5 6.1 5.6 7.1q.5.6.1 1.2" style="stroke-width:0;fill:#a62a34"/><path d="m190.8 206.3-46.2 61.2q-.9 0-1.9.2-.5 0-.8-.5c-.2-1-.9-3.2-3-4.8l14.6-17.8c5.1-2 11-5.4 12-11.4q0-.8.9-1.3c3.2-1.3 14-6.8 13.2-18l-.3-1.4 9.2-13.6.1 1.1q.2 1.5.7 2.6l1.5 3.5z" style="stroke-width:0;fill:#e27d51"/><path d="M153.5 244.6 139 262.4a8 8 0 0 0-3.4-1.5.4.4 0 0 1-.3-.6l9.4-12.8q.6-.8 1.7-1c1.4-.2 4.1-.8 7.1-2" style="stroke-width:0;fill:#f1b291"/><path d="m193.4 225.6-39 51.3-.3-.6c-.4-2.6-2.1-9-9.5-8.8l46.2-61.2q.3.7 0 1.6c-.9 2.1-2.6 7.9.5 14z" style="stroke-width:0;fill:#cf4332"/><path d="m263 134-43.4 57q-2.8-.7-6.3-1.9l-7.6-2.4 18.4-24.5 27.4-37.3q5.4 3.4 11.4 9" style="stroke-width:0;fill:#d34030"/><path d="M170.6 236.4c-2.5 6-11 9.4-11 9.4l-3.8 2c-6.1 2.4-10 2.2-12.4 1.4l1.3-1.7q.6-.8 1.7-1c1.4-.2 4.1-.8 7-2 5.2-1.8 11-5.3 12-11.3q.1-.8 1-1.3c2.9-1.2 12.1-5.9 13.1-15.1 2.3 12.5-9 19.6-9 19.6" style="stroke-width:0;fill:#a42b30"/><path d="m137.4 268.1-9.1 25.5-2.5-.4q-.5 0-.5-.5l5.8-25.5q.3-1 1.3-1.4.7-.2 1.8 0a4 4 0 0 1 3.2 2.3Z" style="stroke-width:0;fill:#fbe9c1"/><path d="M159.1 286.7 136 300.5q-.4.1-.6-.2c-.3-.8-1-2.5-2.5-4l17-15.8v.3s.1 2 3.2 1.6c2.9-.3 5-1 6.5 3q.2.8-.5 1.3" style="stroke-width:0;fill:#ca8a64"/><ellipse cx="119.8" cy="137.3" class="cls-25" rx="9.7" ry="12.3"/><ellipse cx="191.5" cy="139.3" class="cls-25" rx="9.3" ry="12"/><ellipse cx="121.7" cy="132.9" class="cls-1" rx="3.5" ry="3" transform="rotate(-82.3 121.7 132.9)"/><ellipse cx="191.9" cy="134.5" class="cls-1" rx="3" ry="2.7" transform="rotate(-82.3 191.9 134.5)"/><path d="M143.6 160.6s6 5.4 9.4 6 9.5-5.8 10.3-6.8c0 0-9.5 4-19.7.8" style="stroke-width:0;fill:#c96e28"/><path d="M165.9 154.4a33 33 0 0 1-27.2.5l-.4-.2q-.5-.3-.2-.7c1.7-2.1 8.6-10 14.1-9.6h.2l1.2.1c5.4 1.1 9.6 6.1 12.4 9.2q.3.4-.1.7Z" style="stroke-width:0;fill:#f39231"/><path d="M153.6 144.5c-1 1-2.4 2.6-2.8 3.5-.6 1.6-2.8 3-4.6 4.5-1 .9-1.2 2.9-1.1 4.3q-3-.5-6.4-2h-.4q-.5-.4-.2-.8c1.7-2.1 8.6-10 14.2-9.6h.1z" style="stroke-width:0;fill:#f8ad47"/><path d="M152.4 144.4c-1.4.6-2.6 1.7-3.3 2.4l-.8 1.3a19 19 0 0 1-9.6 6.8l-.4-.2q-.5-.3-.2-.7c1.7-2.1 8.6-10 14.1-9.6z" class="cls-16"/></g><text x="340" y="245" style="font-family:&quot;American Typewriter&quot;,&quot;Courier New&quot;,Courier,monospace;font-size:160px;font-weight:400;fill:#311b1e">Scratchwork</text></svg>
